<svg xmlns="http://www.w3.org/2000/svg" width="27.838" height="22.035" viewBox="0 0 27.838 22.035"><defs><style>.a{fill:#fbb03b;}</style></defs><path class="a" d="M311.258,644.47l-3.953,3.281c2.693,1.6,5.469,5.044,6.056,7.906a5.447,5.447,0,0,0-1.43-.253,5.019,5.019,0,0,0-5.045,5.3,5.8,5.8,0,0,0,5.72,5.8c3.447,0,6.559-2.776,6.559-7.654a17.636,17.636,0,0,0-6.139-12.969,20.143,20.143,0,0,0-1.768-1.412m-15.56,0-3.952,3.281c2.693,1.6,5.468,5.044,6.056,7.906a5.432,5.432,0,0,0-1.431-.253,5.019,5.019,0,0,0-5.044,5.3,5.8,5.8,0,0,0,5.719,5.8c3.447,0,6.56-2.776,6.56-7.654,0-5.8-3.282-11.1-7.908-14.381" transform="translate(-291.327 -644.47)"/></svg>