<svg xmlns="http://www.w3.org/2000/svg" width="38.854" height="36.913" viewBox="0 0 38.854 36.913"><defs><style>.a{fill:#fbb03b;}.b{fill:#fff;}</style></defs><g transform="translate(-1689.958 -4020.044)"><g transform="translate(1689.958 4020.044)"><g transform="translate(13.599 9.714)"><rect class="a" width="7.771" height="1.943"/></g><g transform="translate(13.599 4.857)"><rect class="a" width="11.657" height="1.943"/></g><path class="b" d="M1727.841,4030.73a1.925,1.925,0,0,0-1.943,0l-.97.561v-9.307a1.945,1.945,0,0,0-1.943-1.943h-27.2a1.945,1.945,0,0,0-1.943,1.943v9.307l-.969-.561a1.942,1.942,0,0,0-2.916,1.682v22.6a1.945,1.945,0,0,0,1.943,1.943h34.97a1.944,1.944,0,0,0,1.942-1.943v-22.6A1.922,1.922,0,0,0,1727.841,4030.73Zm-32.055-8.743h27.2v10.432l-13.6,7.874-13.6-7.874Zm31.085,33.026H1691.9l-.005-22.6,17.49,10.125,17.485-10.122Z" transform="translate(-1689.958 -4020.044)"/></g></g></svg>