<svg xmlns="http://www.w3.org/2000/svg" width="188" height="41.073" viewBox="0 0 188 41.073"><defs><style>.a{fill:#fff;}</style></defs><g transform="translate(-749.563 -576.662)"><path class="a" d="M764.534,596.2c2.791.65,5.064.247,6.734-2.312a44.99,44.99,0,0,1,3.609-4.257V603.9l-5.712-6.36h-4.677v14.98l5.612,4.295H749.9a4.558,4.558,0,0,1,.737-.841c3.062-1.918,3.572-4.724,3.476-8.152-.229-8.167-.074-16.344-.074-24.518v-2.655l-4.479-3.987h30.658v13.631l-7.845-12.614h-7.843Z" transform="translate(0)"/><path class="a" d="M840.505,634.824a72.474,72.474,0,0,1-7.543-2.006,10.6,10.6,0,0,1-6.21-6.564,17.9,17.9,0,0,1-.506-11.135c1.574-5.84,6.105-9.363,12.712-9.678a24.6,24.6,0,0,1,6.824.549c8.309,1.993,10.95,9.039,9.877,16.611C854.545,630.464,849.289,634.424,840.505,634.824Zm-4.753-14.947.274.026a22.49,22.49,0,0,0,.029,3.434,79.423,79.423,0,0,0,1.564,8.074,2.925,2.925,0,0,0,3.151,2.05,3.249,3.249,0,0,0,3.155-2.1,6.205,6.205,0,0,0,.707-2.089c.242-5.029.49-10.062.542-15.1a18.043,18.043,0,0,0-.892-4.735c-.47-1.745-1.471-3.047-3.5-3.077-2.129-.03-3.1,1.342-3.7,3.129a5.839,5.839,0,0,0-.314,1.164C836.42,613.732,836.09,616.805,835.752,619.878Z" transform="translate(-45.202 -17.09)"/><path class="a" d="M1055.023,617.906h-16.768c-.593,4.282,1.361,8.523,4.489,10.03,3.772,1.818,7.9.684,11.739-3.225-.246,3.957-3.813,7.807-8.166,8.815-11.112,2.574-19.679-5.591-17.725-16.891a14.38,14.38,0,0,1,21.8-9.879A10.719,10.719,0,0,1,1055.023,617.906Zm-8.059-.941c-.4-3-.656-5.777-1.181-8.5a2.982,2.982,0,0,0-2.969-2.565,3.321,3.321,0,0,0-3.337,2.16,19.079,19.079,0,0,0-1.362,8.909Z" transform="translate(-165.726 -16.612)"/><path class="a" d="M1101.693,632.858l3.241-9.027,4.975,9.394a25.367,25.367,0,0,0,3.993-.04,4,4,0,0,0,3.554-3.148,3.578,3.578,0,0,0-2.1-4.18c-2.562-1.349-5.207-2.54-7.79-3.852a8.342,8.342,0,0,1-4.69-5.526,8.181,8.181,0,0,1,5.062-10.027c4.1-1.734,8.328-1.3,12.549-.6,1.186.195,2.349.531,3.867.882l-3.2,8.282-4.959-8.71a25.023,25.023,0,0,0-2.771.017,3.757,3.757,0,0,0-3.5,2.887,3.509,3.509,0,0,0,1.42,4.108,51.388,51.388,0,0,0,5.334,2.84c1.445.723,2.992,1.261,4.378,2.078a8.029,8.029,0,0,1,.2,13.884c-3.28,2.1-6.988,2.455-10.723,2.149C1107.681,634.029,1104.862,633.378,1101.693,632.858Z" transform="translate(-209.352 -16.989)"/><path class="a" d="M906.064,633.738l3.428-2.529c0-7.5.03-14.32-.046-21.139a3.306,3.306,0,0,0-1.034-2.056,12.408,12.408,0,0,0-2.4-1.475l.708-.843h12.011v5.635c1.864-2.844,3.258-6.057,7.191-6.109,1.4-.019,2.81.7,4.431,1.138l-3.337,9.475-5.314-5.9c-1.75,1.5-2.894,2.841-2.9,4.83-.024,4.525-.086,9.053.06,13.574a3.945,3.945,0,0,0,1.471,2.54,42.676,42.676,0,0,0,4.709,2.856Z" transform="translate(-93.012 -16.98)"/><path class="a" d="M983.126,609.57c-2.022,1.855-3,3.385-2.947,5.561.095,4.185.078,8.375,0,12.561a3,3,0,0,0,1.741,3.1,18.448,18.448,0,0,1,4.1,2.8H968.162l-.251-.334,3-2.005c0-7.8.031-14.678-.048-21.559a3.644,3.644,0,0,0-1.073-2.046,13.7,13.7,0,0,0-2.072-1.61l.378-.587h11.959v5.54c1.7-1.937,3.044-4.01,4.891-5.431,2.053-1.581,4.795-.874,6.574,1.2l-3.083,8.8Z" transform="translate(-129.701 -16.665)"/><path class="a" d="M1168.668,593.45l-3.153-.323-.011-.672,3.71-.386,8.558-9.451v9.752h7.079l0,.768h-6.99v8.628c0,3.378-.006,6.755,0,10.133,0,1.636-.111,3.607,1.641,4.228,1.292.458,2.932-.066,4.448-.154a11.946,11.946,0,0,1-.8,1.65c-1.879,2.93-6.12,4.224-9.969,3.087-3.019-.892-4.49-3.156-4.506-7.071-.025-5.877-.007-11.754-.007-17.631Z" transform="translate(-247.29 -3.541)"/></g></svg>