<svg xmlns="http://www.w3.org/2000/svg" xmlns:xlink="http://www.w3.org/1999/xlink" width="16" height="16" viewBox="0 0 16 16"><defs><style>.a{fill:none;}.b{clip-path:url(#a);}.c{fill:#fbb03b;fill-rule:evenodd;}</style><clipPath id="a"><rect class="a" width="16" height="16"/></clipPath></defs><g class="b"><rect class="a" width="15" height="15" transform="translate(0 0)"/><path class="c" d="M6.082,8.748a2.575,2.575,0,0,0,2.58-2.58A2.654,2.654,0,0,0,6.082,3.5,2.575,2.575,0,0,0,3.5,6.076,2.719,2.719,0,0,0,6.082,8.748Zm-4.33-7a6.124,6.124,0,1,1,8.66,8.66l-4.33,4.33-4.33-4.33A6.291,6.291,0,0,1,1.752,1.746Z" transform="translate(0.975 0.05)"/></g></svg>