<svg xmlns="http://www.w3.org/2000/svg" width="37.005" height="37.158" viewBox="0 0 37.005 37.158"><defs><style>.a{fill:#fff;}.b{fill:#fbb03b;}</style></defs><g transform="translate(-1634.872 -4077.347)"><g transform="translate(1634.872 4077.347)"><path class="a" d="M1669.469,4104.906l-5.649-5.674a2.988,2.988,0,0,0-4.236,0l-2.118,2.127a1,1,0,0,1-1.352.061,61.347,61.347,0,0,1-8.593-8.63,1.015,1.015,0,0,1,.06-1.358l2.118-2.127a3.02,3.02,0,0,0,0-4.254l-5.648-5.672a2.989,2.989,0,0,0-4.236,0l-2.913,2.924a7.119,7.119,0,0,0-1.148,8.415,53.524,53.524,0,0,0,4.341,6.629,62.8,62.8,0,0,0,11.483,11.533,53.3,53.3,0,0,0,6.6,4.36,7.076,7.076,0,0,0,3.426.885,6.978,6.978,0,0,0,4.951-2.039l2.913-2.924A3.02,3.02,0,0,0,1669.469,4104.906Zm-1.412,2.835-2.911,2.925a4.983,4.983,0,0,1-6,.817,51.373,51.373,0,0,1-6.353-4.2,60.8,60.8,0,0,1-11.111-11.16,51.219,51.219,0,0,1-4.179-6.378,5.036,5.036,0,0,1,.812-6.026l2.912-2.925a1,1,0,0,1,1.413,0l5.649,5.673a1.008,1.008,0,0,1,0,1.418l-2.12,2.127a3.021,3.021,0,0,0-.193,4.044c1.305,1.6,2.724,3.179,4.218,4.68a62.585,62.585,0,0,0,4.659,4.234,2.988,2.988,0,0,0,4.027-.194l2.118-2.128a1.021,1.021,0,0,1,1.413,0l5.647,5.673A1.006,1.006,0,0,1,1668.056,4107.741Z" transform="translate(-1634.872 -4076.965)"/><g transform="translate(22.406)"><path class="a" d="M1664.471,4091.946a18.1,18.1,0,0,0-12.664-12.663l.527-1.936a20.115,20.115,0,0,1,14.072,14.071Z" transform="translate(-1651.808 -4077.347)"/></g><g transform="translate(20.857 5.806)"><path class="b" d="M1659.06,4092.082a12.035,12.035,0,0,0-8.44-8.439l.525-1.937a14.05,14.05,0,0,1,9.85,9.852Z" transform="translate(-1650.62 -4081.705)"/></g></g></g></svg>