<svg xmlns="http://www.w3.org/2000/svg" width="16.19" height="11.252" viewBox="0 0 16.19 11.252"><defs><style>.a{fill:#fbb03b;}</style></defs><g transform="translate(-1126.81 -296.748)"><path class="a" d="M1.177,6.411A3.847,3.847,0,0,1,4.056,5.233H6.018V7.85l5.233-3.925L6.018,0V2.617H4.056A6.136,6.136,0,0,0,0,4.056,7.3,7.3,0,0,1,.654,5.1Z" transform="translate(1126.81 308) rotate(-90)"/><path class="a" d="M1.177,6.411A3.847,3.847,0,0,1,4.056,5.233H6.018V7.85l5.233-3.925L6.018,0V2.617H4.056A6.136,6.136,0,0,0,0,4.056,7.3,7.3,0,0,1,.654,5.1Z" transform="translate(1143 296.748) rotate(90)"/></g></svg>